<?xml version="1.0" encoding="utf-8"?>
<!-- Generator: Adobe Illustrator 24.0.0, SVG Export Plug-In . SVG Version: 6.00 Build 0)  -->
<svg version="1.1" id="Layer_1" xmlns="http://www.w3.org/2000/svg" xmlns:xlink="http://www.w3.org/1999/xlink" x="0px" y="0px"
	 viewBox="0 0 283.24 152.56" xml:space="preserve" fill="currentColor">
	<g>
		<polygon points="243.62,50.4 200.63,50.4 200.63,64.04 214.2,64.04 214.2,102.16 230.05,102.16 230.05,64.04 243.62,64.04 	"/>
		<polygon points="196.53,50.4 180.15,50.4 171.21,63.69 162.82,50.4 145.45,50.4 162.31,76.5 145.69,102.16 162.65,102.16 
			170.98,89 179.44,102.16 196.81,102.16 179.87,76.03 	"/>
		<polygon points="75.09,75.64 75.11,76.08 57.43,50.4 42.59,50.4 42.59,102.16 57.51,102.16 57.51,74.91 76.18,102.16 90.02,102.16 
			90.02,50.4 75.09,50.4 	"/>
		<polygon points="98.03,50.4 98.03,63.44 116.95,63.44 96.93,102.16 140.08,102.16 140.08,89.04 120.11,89.04 140.5,50.4 	"/>
	</g>
</svg>
